<svg width="96" height="96" viewBox="0 0 96 96" fill="none" xmlns="http://www.w3.org/2000/svg">
<path fill-rule="evenodd" clip-rule="evenodd" d="M77.7041 15.4326C79.9132 15.4326 81.7041 17.2235 81.7041 19.4326V26.5176C81.7039 37.4554 73.3073 46.4294 62.6084 47.3516C61.6462 56.9437 53.5497 64.4326 43.7041 64.4326H38.6455C37.8806 74.2247 29.6926 81.9326 19.7041 81.9326H17.7041C16.6685 81.9326 15.8172 81.1453 15.7148 80.1367L15.7041 79.9326C15.7041 79.7996 15.7063 79.6666 15.709 79.5342C15.7073 79.5005 15.7041 79.4667 15.7041 79.4326V37.4326C15.7041 25.2824 25.5538 15.4326 37.7041 15.4326H77.7041ZM34.6279 64.4434C27.0068 64.7219 20.7898 70.5022 19.832 77.9307L20.0908 77.9277C27.6894 77.7354 33.8828 71.8921 34.6279 64.4434ZM37.7041 47.4326C27.763 47.4326 19.7041 55.4915 19.7041 65.4326V68.1006C23.2674 63.4397 28.8841 60.4326 35.2041 60.4326H43.7041C51.3101 60.4326 57.5934 54.7712 58.5713 47.4326H37.7041ZM37.7041 19.4326C27.763 19.4326 19.7041 27.4915 19.7041 37.4326V52.7812C23.6855 47.1269 30.2631 43.4326 37.7041 43.4326H60.7041C60.7181 43.4326 60.7321 43.4343 60.7461 43.4346C60.7604 43.4343 60.7747 43.4326 60.7891 43.4326C70.1308 43.4325 77.7039 35.8593 77.7041 26.5176V19.4326H37.7041Z" fill="white"/>
</svg>
